<?xml version="1.0" encoding="utf-8"?>
<svg viewBox="0 0 500 500" xmlns="http://www.w3.org/2000/svg" xmlns:bx="https://boxy-svg.com">
  <defs>
    <clipPath id="clippath0" transform="">
      <path d="M 0 560.972 L 400.911 560.972 L 400.911 0 L 0 0 Z" style="fill: none; clip-rule: nonzero;"/>
    </clipPath>
    <clipPath id="clip-1" transform="">
      <path d="M 0 560.972 L 400.911 560.972 L 400.911 0 L 0 0 Z" style="fill: none; clip-rule: nonzero;"/>
    </clipPath>
    <clipPath id="clippath1" transform="">
      <path d="M 0 560.972 L 400.911 560.972 L 400.911 0 L 0 0 Z" style="fill: none; clip-rule: nonzero;"/>
    </clipPath>
    <clipPath id="clip-2" transform="">
      <path d="M 0 560.972 L 400.911 560.972 L 400.911 0 L 0 0 Z" style="fill: none; clip-rule: nonzero;"/>
    </clipPath>
    <clipPath id="clip-3" transform="">
      <path d="M 0 560.972 L 400.911 560.972 L 400.911 0 L 0 0 Z" style="fill: none; clip-rule: nonzero;"/>
    </clipPath>
    <path id="path-0" d="M 293.071 245.214 C 293.071 223.679 293.071 215.252 293.071 206.825 C 294.008 183.112 294.944 215.03 294.944 219.933 C 294.944 258.579 293.218 287.553 287.453 316.375 C 286.517 330.821 279.963 356.997 279.963 321.057 L 279.963 308.885 C 279.963 303.891 279.963 298.897 279.963 293.903" style="fill: none;"/>
    <path id="path-1" d="M 223.78278012816787 364.752379860639 L 186.07020170694423 373.1329528431331" style="fill: none;"/>
    <bx:guide x="233.14607636784018" y="367.5613687325407" angle="0"/>
    <path id="path-2" d="M 352.996 358.198 L 343.633 390.033 C 342.217 391.449 338.815 395.387 338.015 396.588" style="fill: none;"/>
    <path id="path-3" d="M 340.824 411.569 C 272.918 438.94 255.983 442.639 237.828 448.086 C 224.727 449.332 207.725 451.691 205.056 449.022 C 210.493 447.24 222.73 446.213 225.655 446.213 C 262.625 443.618 294.298 437.786 322.097 437.786 C 328.511 437.786 334.93 438.861 338.951 436.85 L 340.824 436.85 C 347.404 436.85 345.506 426.963 345.506 420.932" style="fill: none;"/>
    <path id="path-4" d="M 184.457 94.153 C 156.416 98.835 150.808 103.516 144.195 103.516 C 142.334 105.377 131.332 109.134 130.15 109.134 C 128.277 110.12 117.824 117.561 116.105 117.561 C 115.169 118.959 110.748 127.6 109.551 128.797 C 107.968 130.525 104.869 138.749 104.869 140.97 C 103.349 146.465 99.251 152.037 99.251 155.951 C 96.462 162.465 94.569 167.461 94.569 173.741 C 94.569 181.344 92.071 189.974 89.888 194.34 C 88.951 202.601 86.142 208.697 86.142 214.94 C 85.206 220.084 83.333 223.047 83.333 227.112 C 82.397 232.418 82.397 236.787 82.397 241.157 C 82.397 247.087 82.397 252.081 82.397 257.074 C 82.397 265.722 80.524 270.745 80.524 277.674 C 80.524 285.164 80.524 290.782 80.524 296.4 C 85.859 303.608 100.241 308.82 106.742 310.445 C 111.973 310.445 115.613 312.318 119.85 312.318 C 126.127 316.722 135.365 314.724 139.513 318.872 C 143.097 320.691 149.69 329.172 150.749 329.172 C 157.818 333.174 160.451 334.192 165.73 339.471 C 171.006 343.046 178.034 347.093 180.712 349.771 L 181.648 351.644" style="fill: none;"/>
    <path id="path-5" d="M 187.266 90.408 C 180.121 91.344 176.838 92.28 173.221 92.28 C 171.672 92.28 163.974 93.1 162.921 94.153 C 158.727 94.153 152.622 93.704 152.622 96.962 C 148.508 96.962 144.677 100.707 142.322 100.707 C 138.647 100.707 136.045 105.389 132.959 105.389 C 132.022 109.447 129.526 113.816 126.404 113.816 C 125.161 115.996 120.787 121.882 120.787 123.179 C 120.787 127.32 114.074 131.923 112.36 135.352 L 111.423 136.288" style="fill: none;"/>
    <path id="path-6" d="M 82.39700690911621 178.4227846911603 L 82.39700690911621 221.231773563062" style="fill: none;"/>
    <path id="path-7" d="M 82.397 184.041 C 82.397 201.979 81.461 205.636 81.461 209.322 C 81.461 215.455 79.588 220.67 79.588 226.176 C 79.588 232.418 79.588 237.724 79.588 243.03 C 79.588 248.96 79.588 253.953 79.588 258.947 C 79.588 263.264 80.524 269.313 80.524 271.119 C 81.461 274.744 90.824 273.287 90.824 274.865 C 91.76 275.759 99.798 281.577 101.124 284.228 C 104.818 286.986 109.551 290.134 109.551 293.591 C 114.645 300.971 118.666 305.268 121.723 311.382 C 122.659 314.124 136.058 323.231 138.577 324.49 C 148.181 329.957 155.41 338.057 161.985 341.344 C 172.33 341.344 185.135 348.948 195.693 350.707 C 208.406 356.374 216.444 358.002 224.719 360.071 C 225.829 360.348 234.082 361.416 234.082 361.943 C 241.197 365.438 252.917 365.689 259.363 365.689 C 275.903 365.689 286.579 365.899 299.625 361.007 C 316.988 348.802 324.831 342.431 331.461 329.172 C 339.318 315.513 339.014 296.275 345.506 283.292 C 348.78 272.532 354.065 241.29 347.378 234.603 C 346.442 223.005 342.706 204.658 338.951 197.149 C 330.11 182.726 327.377 170.255 321.161 157.824 L 318.352 155.015 C 310.245 153.393 302.146 151.125 294.944 147.524" style="fill: none;"/>
    <path id="path-8" d="M 152.62172870665842 112.87971101345424 L 106.46944159244117 119.47289488691402" style="fill: none;"/>
    <path id="path-9" d="M 142.3221028430189 128.79731462089717 L 129.46059847918903 173.81257989430063" style="fill: none;"/>
    <path id="path-10" d="M 177.90262855377364 93.21678891014243 L 131.7503414395563 99.80997278360196" style="fill: none;"/>
    <path id="path-11" d="M 127.341 113.816 C 114.795 114.752 103.286 124.98 95.506 126.925 L 92.697 128.797 C 91.737 128.797 89.591 129.094 88.951 129.734" style="fill: none;"/>
    <path id="path-12" d="M 97.378 156.887 C 88.367 185.792 89.47 197.567 86.142 200.895 C 83.467 204.506 79.588 216.874 79.588 219.621 C 78.652 225.177 76.779 227.549 76.779 232.73 C 74.239 238.745 73.034 250.627 73.034 256.138 C 73.034 264.864 73.97 273.747 73.97 281.419 C 76.849 286.17 83.247 287.973 87.079 287.973 C 93.825 287.973 96.621 300.324 100.187 303.891 C 105.919 312.02 109.43 316.351 114.232 323.554 C 120.476 329.797 121.833 330.736 130.15 335.726 C 137.119 340.823 142.853 339.737 147.94 342.28 C 149.813 344.045 166.972 349.771 169.476 349.771 C 177.028 355.451 185.967 353.153 190.075 357.262 C 205.828 357.262 224.656 367.062 236.891 373.179 C 241.902 376.317 254.119 374.116 258.427 374.116 C 259.363 369.911 272.878 365.812 275.281 361.007 C 278.495 360.071 282.172 353.18 284.644 350.707 C 287.223 345.551 289.273 341.344 294.008 341.344 C 299.507 339.062 308.048 332.917 308.989 332.917 C 313.486 330.292 314.423 328.419 317.416 325.427 C 320.912 324.49 325.068 317.774 326.779 316.063 C 328.652 314.061 333.285 306.7 334.27 306.7 C 336.458 306.7 338.951 299.474 338.951 298.273 C 339.888 292.692 344.569 292.066 344.569 286.101 C 345.506 279.492 351.124 272.75 351.124 269.247 C 351.124 263.752 352.06 258.171 352.06 254.265 C 352.06 247.278 358.56 241.319 360.487 235.539 C 361.423 224.187 365.049 221.783 356.742 209.322 C 355.805 201.941 354.869 196.395 354.869 192.468 C 354.869 185.131 351.261 179.635 349.251 175.614 C 348.315 165.133 344.569 157.286 344.569 149.397 C 344.569 141.27 327.988 138.402 322.097 137.224 C 314.463 137.224 309.139 132.543 304.307 132.543 C 291.621 131.606 329.813 127.861 335.206 127.861 L 336.142 128.797 C 341.947 136.053 341.815 147.579 348.315 154.078" style="fill: none;"/>
    <style bx:fonts="Charm">@import url(https://fonts.googleapis.com/css2?family=Charm%3Aital%2Cwght%400%2C400%3B0%2C700&amp;display=swap);</style>
  </defs>
  <g>
    <g>
      <g>
        <g transform="matrix(0.437141, 0, 0, 0.437141, 206.372894, 13.155909)">
          <g class="page-1" transform="matrix(1, 0, 0, -1, 0, 560.972)">
            <g transform="">
              <path d="M 0 560.972 L 400.911 560.972 L 400.911 0 L 0 0 Z" style="fill: none;"/>
            </g>
            <g style="clip-path: url(&quot;#clippath0&quot;);"/>
            <g transform="">
              <path d="M 0 560.972 L 400.911 560.972 L 400.911 0 L 0 0 Z" style="fill: none;"/>
            </g>
          </g>
        </g>
        <g transform="matrix(0.437141, 0, 0, 0.437141, 206.372894, 116.984459)">
          <g class="page-1" transform="matrix(1, 0, 0, -1, 0, 560.972)">
            <g transform="">
              <path d="M 0 560.972 L 400.911 560.972 L 400.911 0 L 0 0 Z" style="fill: none;"/>
            </g>
            <g style="clip-path: url(&quot;#clip-1&quot;);">
              <g transform="translate(307.6167 422.4309)">
                <path d="M 0 0 C -3.668 13.236 -7.257 26.184 -10.932 39.445 C -20.713 29.555 -30.107 20.056 -39.733 10.322 C -26.354 6.846 -13.397 3.48 0 0" style="fill-opacity: 1; fill: none;"/>
              </g>
            </g>
            <g style="clip-path: url(&quot;#clip-1&quot;);">
              <g transform="translate(261.5757 434.3904)">
                <path d="M 0 0 C -3.67 13.23 -7.266 26.197 -10.933 39.42 C -20.647 29.582 -30.103 20.006 -39.68 10.308 C -26.307 6.834 -13.305 3.456 0 0" style="fill-opacity: 1; fill: none;"/>
              </g>
            </g>
            <g style="clip-path: url(&quot;#clip-1&quot;);">
              <g transform="translate(248.3794 478.1385)">
                <path d="M 0 0 C -13.49 3.504 -26.505 6.885 -39.729 10.321 C -36.076 -2.755 -32.496 -15.571 -28.723 -29.077 C -18.998 -19.231 -9.611 -9.729 0 0" style="fill-opacity: 1; fill: none;"/>
              </g>
            </g>
            <g style="clip-path: url(&quot;#clip-1&quot;);">
              <g transform="translate(294.5611 466.3211)">
                <path d="M 0 0 C -13.448 3.494 -26.51 6.887 -39.89 10.362 C -36.212 -2.88 -32.634 -15.763 -28.895 -29.226 C -19.053 -19.271 -9.658 -9.769 0 0" style="fill-opacity: 1; fill: none;"/>
              </g>
            </g>
            <g style="clip-path: url(&quot;#clip-1&quot;);">
              <g transform="translate(192.6836 462.3875)">
                <path d="M 0 0 L -4.747 1.388 L 9.492 16.125 Z M 11.936 23.358 C 2.215 13.538 -7.226 4 -16.841 -5.713 C -3.479 -9.184 9.513 -12.559 22.905 -16.039 C 19.226 -2.824 15.637 10.065 11.936 23.358" style="fill-opacity: 1; fill: none;"/>
              </g>
            </g>
            <g style="clip-path: url(&quot;#clip-1&quot;);">
              <g transform="translate(150.4053 86.865)">
                <path d="M 0 0 C -75.215 19.54 -121.475 92.02 -103.324 161.889 C -85.173 231.758 -9.485 272.558 65.73 253.019 C 140.945 233.479 187.205 160.999 169.054 91.13 C 150.903 21.261 75.215 -19.539 0 0 M -86.888 31.382 C -63.961 7.149 -36.294 -9.349 -4.13 -17.451 C 27.808 -25.497 59.82 -24.539 91.345 -14.004 C 22.668 -44.367 -52.415 -16.112 -86.888 31.382 M 144.676 230.215 C 123.329 249.975 98.868 263.932 70.623 271.383 C 42.381 278.833 14.196 278.986 -14.168 272.314 C 37.769 292.095 108.568 274.012 144.676 230.215 M 136.765 327.055 L 141.312 325.973 L 122.703 311.23 C 126.996 316.116 136.478 327.105 136.765 327.055 M 138.074 264.845 C 135.853 266.586 134.808 268.303 134.507 271.262 C 133.454 281.601 131.875 291.885 130.389 302.997 C 128.531 301.725 116.47 300.039 113.125 281.12 C 109.089 283.073 105.431 284.845 101.543 286.728 L 156.34 329.91 L 115.535 340.511 L 87.982 293.046 C 87.038 293.424 86.098 293.798 85.188 294.159 L 110.267 341.833 L 69.504 352.422 L 68.046 298.875 C 67.246 299.003 66.188 299.147 64.929 299.299 L 64.268 353.753 L 23.516 364.34 L 49.833 300.519 C 49.206 300.503 39.026 300.854 34.047 301.117 C 39.184 311.214 38.705 321.021 30.293 329 C 23.746 320.173 16.635 310.409 9.922 301.613 C 9.01 300.417 7.31 299.417 5.82 299.13 C -76.629 286.794 -121.948 222.076 -134.318 174.325 C -137.706 162.45 -161.651 79.407 -92.354 5.789 C -36.68 -52.223 61.463 -69.817 139.323 -9.642 C 250.618 81.318 202.321 219.825 138.074 264.845" style="fill-opacity: 1; fill: none;"/>
              </g>
            </g>
            <g transform="">
              <path d="M 0 560.972 L 400.911 560.972 L 400.911 0 L 0 0 Z" style="fill: none;"/>
            </g>
            <g style="clip-path: url(&quot;#clippath1&quot;);">
              <g transform="translate(175.6524 481.8221)">
                <path d="M 0 0 C 4.444 22.744 4.444 22.744 26.595 29.602 C 4.949 32.93 4.752 33.822 -2.221 56.738 C -6.955 33.241 -7.791 32.81 -29.337 27.617 C -3.645 21.482 -3.813 20.955 0 0" style="fill-opacity: 1; fill: none;"/>
              </g>
            </g>
            <g style="clip-path: url(&quot;#clippath1&quot;);">
              <g transform="translate(176.3272 424.0232)">
                <path d="M 0 0 C -14.142 2.174 -14.271 2.757 -18.827 17.728 C -21.919 2.378 -22.465 2.096 -36.542 -1.296 C -19.756 -5.304 -19.866 -5.648 -17.375 -19.338 C -14.472 -4.48 -14.472 -4.48 0 0" style="fill-opacity: 1; fill: none;"/>
              </g>
            </g>
            <g style="clip-path: url(&quot;#clippath1&quot;);">
              <g transform="translate(296.1519 397.7747)">
                <path d="M 0 0 C 19.262 -4.599 19.136 -4.995 21.994 -20.704 C 25.325 -3.653 25.325 -3.653 41.932 1.488 C 25.704 3.983 25.557 4.652 20.329 21.832 C 16.779 4.216 16.153 3.893 0 0" style="fill-opacity: 1; fill: none;"/>
              </g>
            </g>
          </g>
        </g>
        <g>
          <g transform="matrix(1.595562, 0, 0, 1.595562, 56.236061, -135.948624)" style="">
            <g>
              <g>
                <g transform="matrix(1, 0, 0, 1, -184.45694, -41.198502)">
                  <g transform="matrix(0.437141, 0, 0, 0.437141, 206.372894, 116.984459)">
                    <g class="page-1" transform="matrix(1, 0, 0, -1, 0, 560.972)">
                      <g transform="">
                        <path d="M 0 560.972 L 400.911 560.972 L 400.911 0 L 0 0 Z" style="fill: none;"/>
                      </g>
                      <g style="clip-path: url(&quot;#clip-2&quot;);">
                        <g transform="translate(307.6167 422.4309)">
                          <path d="M 0 0 C -3.668 13.236 -7.257 26.184 -10.932 39.445 C -20.713 29.555 -30.107 20.056 -39.733 10.322 C -26.354 6.846 -13.397 3.48 0 0" style="fill-opacity: 1; fill: rgb(255, 215, 0);"/>
                        </g>
                      </g>
                      <g style="clip-path: url(&quot;#clip-2&quot;);">
                        <g transform="translate(261.5757 434.3904)">
                          <path d="M 0 0 C -3.67 13.23 -7.266 26.197 -10.933 39.42 C -20.647 29.582 -30.103 20.006 -39.68 10.308 C -26.307 6.834 -13.305 3.456 0 0" style="fill-opacity: 1; fill: rgb(255, 215, 0);"/>
                        </g>
                      </g>
                      <g style="clip-path: url(&quot;#clip-2&quot;);">
                        <g transform="translate(248.3794 478.1385)">
                          <path d="M 0 0 C -13.49 3.504 -26.505 6.885 -39.729 10.321 C -36.076 -2.755 -32.496 -15.571 -28.723 -29.077 C -18.998 -19.231 -9.611 -9.729 0 0" style="fill-opacity: 1; fill: rgb(240, 255, 255);"/>
                        </g>
                      </g>
                      <g style="clip-path: url(&quot;#clip-2&quot;);">
                        <g transform="translate(294.5611 466.3211)">
                          <path d="M 0 0 C -13.448 3.494 -26.51 6.887 -39.89 10.362 C -36.212 -2.88 -32.634 -15.763 -28.895 -29.226 C -19.053 -19.271 -9.658 -9.769 0 0" style="fill-opacity: 1; fill: rgb(240, 255, 255);"/>
                        </g>
                      </g>
                      <g style="clip-path: url(&quot;#clip-2&quot;);">
                        <g transform="translate(192.6836 462.3875)">
                          <path d="M 0 0 L -4.747 1.388 L 9.492 16.125 Z M 11.936 23.358 C 2.215 13.538 -7.226 4 -16.841 -5.713 C -3.479 -9.184 9.513 -12.559 22.905 -16.039 C 19.226 -2.824 15.637 10.065 11.936 23.358" style="fill-opacity: 1; fill: rgb(255, 215, 0);"/>
                        </g>
                      </g>
                      <g style="clip-path: url(&quot;#clip-2&quot;);">
                        <g transform="translate(150.4053 86.865)">
                          <path d="M 0 0 C -75.215 19.54 -121.475 92.02 -103.324 161.889 C -85.173 231.758 -9.485 272.558 65.73 253.019 C 140.945 233.479 187.205 160.999 169.054 91.13 C 150.903 21.261 75.215 -19.539 0 0 M -86.888 31.382 C -63.961 7.149 -36.294 -9.349 -4.13 -17.451 C 27.808 -25.497 59.82 -24.539 91.345 -14.004 C 22.668 -44.367 -52.415 -16.112 -86.888 31.382 M 144.676 230.215 C 123.329 249.975 98.868 263.932 70.623 271.383 C 42.381 278.833 14.196 278.986 -14.168 272.314 C 37.769 292.095 108.568 274.012 144.676 230.215 M 136.765 327.055 L 141.312 325.973 L 122.703 311.23 C 126.996 316.116 136.478 327.105 136.765 327.055 M 138.074 264.845 C 135.853 266.586 134.808 268.303 134.507 271.262 C 133.454 281.601 131.875 291.885 130.389 302.997 C 128.531 301.725 116.47 300.039 113.125 281.12 C 109.089 283.073 105.431 284.845 101.543 286.728 L 156.34 329.91 L 115.535 340.511 L 87.982 293.046 C 87.038 293.424 86.098 293.798 85.188 294.159 L 110.267 341.833 L 69.504 352.422 L 68.046 298.875 C 67.246 299.003 66.188 299.147 64.929 299.299 L 64.268 353.753 L 23.516 364.34 L 49.833 300.519 C 49.206 300.503 39.026 300.854 34.047 301.117 C 39.184 311.214 38.705 321.021 30.293 329 C 23.746 320.173 16.635 310.409 9.922 301.613 C 9.01 300.417 7.31 299.417 5.82 299.13 C -76.629 286.794 -121.948 222.076 -134.318 174.325 C -137.706 162.45 -161.651 79.407 -92.354 5.789 C -36.68 -52.223 61.463 -69.817 139.323 -9.642 C 250.618 81.318 202.321 219.825 138.074 264.845" style="fill-opacity: 1; fill: rgb(255, 215, 0);"/>
                        </g>
                      </g>
                      <g transform="">
                        <path d="M 0 560.972 L 400.911 560.972 L 400.911 0 L 0 0 Z" style="fill: none;"/>
                      </g>
                      <g style="clip-path: url(&quot;#clip-3&quot;);">
                        <g transform="translate(175.6524 481.8221)">
                          <path d="M 0 0 C 4.444 22.744 4.444 22.744 26.595 29.602 C 4.949 32.93 4.752 33.822 -2.221 56.738 C -6.955 33.241 -7.791 32.81 -29.337 27.617 C -3.645 21.482 -3.813 20.955 0 0" style="fill-opacity: 1; fill: rgb(240, 255, 255);"/>
                        </g>
                      </g>
                      <g style="clip-path: url(&quot;#clip-3&quot;);">
                        <g transform="translate(176.3272 424.0232)">
                          <path d="M 0 0 C -14.142 2.174 -14.271 2.757 -18.827 17.728 C -21.919 2.378 -22.465 2.096 -36.542 -1.296 C -19.756 -5.304 -19.866 -5.648 -17.375 -19.338 C -14.472 -4.48 -14.472 -4.48 0 0" style="fill-opacity: 1; fill: rgb(240, 255, 255);"/>
                        </g>
                      </g>
                      <g style="clip-path: url(&quot;#clip-3&quot;);">
                        <g transform="translate(296.1519 397.7747)">
                          <path d="M 0 0 C 19.262 -4.599 19.136 -4.995 21.994 -20.704 C 25.325 -3.653 25.325 -3.653 41.932 1.488 C 25.704 3.983 25.557 4.652 20.329 21.832 C 16.779 4.216 16.153 3.893 0 0" style="fill-opacity: 1; fill: rgb(240, 255, 255);"/>
                        </g>
                      </g>
                    </g>
                  </g>
                </g>
              </g>
            </g>
          </g>
        </g>
        <text style="fill: rgb(240, 255, 255); font-family: Arial, sans-serif; font-size: 125.6px; font-weight: 900; white-space: pre; transform-box: fill-box; transform-origin: 59.1752% 29.4601%;" transform="matrix(0.999999, 0.001448, -0.001448, 0.999999, -310.035621, -229.371687)" x="460.012" y="486.091" dx="0 -33.656" dy="0 35.629">TJ</text>
      </g>
    </g>
  </g>
  <g transform="matrix(3.733229, 0, 0, 3.962603, 184.779175, 46.510273)" style=""/>
  <g transform="matrix(1.848783, 0, 0, 1.976239, 280.840576, 157.586075)" style="">
    <g transform="matrix(1, 0, 0, 1, -471.994171, -87.321999)"/>
  </g>
  <g transform="matrix(1.96458, 0, 0, 1.551711, 211.989105, 128.375839)" style="transform-origin: 69.543px 108.936px;"/>
  <g transform="matrix(0.51409, 0, 0, 0.948811, 145.000717, 163.391907)" style="">
    <g transform="matrix(4.4771 0 0 4.4771 -1522.9 -1819.7)"/>
  </g>
  <g transform="matrix(0.378555, 0, 0, 0.378555, 198.033707, 142.686234)">
    <g/>
    <g/>
    <g/>
    <g/>
    <g/>
    <g/>
    <g/>
    <g/>
    <g/>
    <g/>
    <g/>
    <g/>
    <g/>
    <g/>
    <g/>
  </g>
  <g transform="matrix(0.437141, 0, 0, 0.437141, 206.372894, 116.984459)"/>
  <text style="white-space: pre; fill: rgb(51, 51, 51); font-family: Arial, sans-serif; font-size: 28px;" x="425.094" y="371.307"> </text>
  <text style="fill: rgb(255, 215, 0); font-family: Charm; font-size: 35px; font-weight: 700; white-space: pre;" x="98.949" y="382">TU JOYA IDEAL</text>
</svg>